<mxfile host="app.diagrams.net" agent="Mozilla/5.0 (Windows NT 10.0; Win64; x64) AppleWebKit/537.36 (KHTML, like Gecko) Chrome/131.0.0.0 Safari/537.36 Edg/131.0.0.0" version="25.0.3">
  <diagram id="EWMO7vUeU4ESloy1NFG6" name="Page-1">
    <mxGraphModel dx="1195" dy="689" grid="1" gridSize="10" guides="1" tooltips="1" connect="1" arrows="1" fold="1" page="1" pageScale="1" pageWidth="850" pageHeight="1100" math="0" shadow="0">
      <root>
        <mxCell id="0" />
        <mxCell id="1" parent="0" />
        <mxCell id="Jf_VxnysqO4fHqm6zsmI-3" style="edgeStyle=orthogonalEdgeStyle;rounded=0;orthogonalLoop=1;jettySize=auto;html=1;exitX=1;exitY=0.25;exitDx=0;exitDy=0;entryX=0;entryY=0.25;entryDx=0;entryDy=0;" edge="1" parent="1" source="Jf_VxnysqO4fHqm6zsmI-1" target="Jf_VxnysqO4fHqm6zsmI-2">
          <mxGeometry relative="1" as="geometry" />
        </mxCell>
        <mxCell id="Jf_VxnysqO4fHqm6zsmI-1" value="User nhập biểu thức (expression)" style="rounded=0;whiteSpace=wrap;html=1;" vertex="1" parent="1">
          <mxGeometry x="140" y="130" width="120" height="60" as="geometry" />
        </mxCell>
        <mxCell id="Jf_VxnysqO4fHqm6zsmI-4" style="edgeStyle=orthogonalEdgeStyle;rounded=0;orthogonalLoop=1;jettySize=auto;html=1;exitX=0;exitY=0.75;exitDx=0;exitDy=0;entryX=1;entryY=0.75;entryDx=0;entryDy=0;" edge="1" parent="1" source="Jf_VxnysqO4fHqm6zsmI-2" target="Jf_VxnysqO4fHqm6zsmI-1">
          <mxGeometry relative="1" as="geometry" />
        </mxCell>
        <mxCell id="Jf_VxnysqO4fHqm6zsmI-2" value="Web server&lt;br&gt;(xử lý biểu thức và tính ra kết quả)" style="rounded=0;whiteSpace=wrap;html=1;" vertex="1" parent="1">
          <mxGeometry x="460" y="130" width="190" height="60" as="geometry" />
        </mxCell>
        <mxCell id="Jf_VxnysqO4fHqm6zsmI-5" value="Request" style="text;html=1;align=center;verticalAlign=middle;whiteSpace=wrap;rounded=0;" vertex="1" parent="1">
          <mxGeometry x="330" y="110" width="60" height="30" as="geometry" />
        </mxCell>
        <mxCell id="Jf_VxnysqO4fHqm6zsmI-6" value="Response (html, data)" style="text;html=1;align=center;verticalAlign=middle;whiteSpace=wrap;rounded=0;" vertex="1" parent="1">
          <mxGeometry x="290" y="180" width="140" height="30" as="geometry" />
        </mxCell>
        <mxCell id="Jf_VxnysqO4fHqm6zsmI-7" value="Database" style="shape=cylinder3;whiteSpace=wrap;html=1;boundedLbl=1;backgroundOutline=1;size=15;" vertex="1" parent="1">
          <mxGeometry x="530" y="270" width="60" height="80" as="geometry" />
        </mxCell>
        <mxCell id="Jf_VxnysqO4fHqm6zsmI-9" value="" style="shape=doubleArrow;direction=south;whiteSpace=wrap;html=1;" vertex="1" parent="1">
          <mxGeometry x="540" y="190" width="40" height="80" as="geometry" />
        </mxCell>
      </root>
    </mxGraphModel>
  </diagram>
</mxfile>
